<svg id="visual" viewBox="0 0 24 24" width="24" height="24" xmlns="http://www.w3.org/2000/svg" xmlns:xlink="http://www.w3.org/1999/xlink" version="1.1"><rect width="24" height="24" fill="#931F1F"></rect><g><g transform="translate(12 7)"><path d="M3 -1.1C3.4 0.1 2.8 1.5 1.7 2.3C0.7 3 -0.8 3.1 -1.8 2.4C-2.7 1.8 -3.1 0.3 -2.7 -0.9C-2.3 -2.1 -1.1 -3.1 0.1 -3.1C1.3 -3.1 2.7 -2.2 3 -1.1Z" stroke="#F7760E" fill="none" stroke-width="20"></path></g><g transform="translate(22 12)"><path d="M1.8 -0.6C2.1 0.1 1.8 1.1 1.1 1.5C0.5 2 -0.4 1.9 -1.1 1.4C-1.7 1 -2.1 0.1 -1.9 -0.6C-1.7 -1.3 -0.8 -1.9 0 -1.8C0.8 -1.8 1.6 -1.3 1.8 -0.6Z" stroke="#F7760E" fill="none" stroke-width="20"></path></g><g transform="translate(4 16)"><path d="M2 -0.7C2.2 0 1.8 1 1.1 1.5C0.4 2 -0.6 2.1 -1.2 1.7C-1.8 1.2 -2 0.2 -1.8 -0.5C-1.5 -1.3 -0.8 -1.8 0.1 -1.9C0.9 -1.9 1.8 -1.4 2 -0.7Z" stroke="#F7760E" fill="none" stroke-width="20"></path></g></g></svg>