<svg id="visual" viewBox="0 0 24 24" width="24" height="24" xmlns="http://www.w3.org/2000/svg" xmlns:xlink="http://www.w3.org/1999/xlink" version="1.1"><rect x="0" y="0" width="24" height="24" fill="#140021"></rect><path d="M0 11L3 11L3 11L7 11L7 12L10 12L10 11L14 11L14 9L17 9L17 10L21 10L21 10L24 10L24 13L24 25L24 25L21 25L21 25L17 25L17 25L14 25L14 25L10 25L10 25L7 25L7 25L3 25L3 25L0 25Z" fill="#9900ff"></path><path d="M0 15L3 15L3 16L7 16L7 13L10 13L10 18L14 18L14 16L17 16L17 15L21 15L21 14L24 14L24 15L24 25L24 25L21 25L21 25L17 25L17 25L14 25L14 25L10 25L10 25L7 25L7 25L3 25L3 25L0 25Z" fill="#7700c6"></path><path d="M0 21L3 21L3 19L7 19L7 20L10 20L10 17L14 17L14 17L17 17L17 19L21 19L21 18L24 18L24 17L24 25L24 25L21 25L21 25L17 25L17 25L14 25L14 25L10 25L10 25L7 25L7 25L3 25L3 25L0 25Z" fill="#560090"></path></svg>