<svg id="visual" viewBox="0 0 24 24" width="24" height="24" xmlns="http://www.w3.org/2000/svg" xmlns:xlink="http://www.w3.org/1999/xlink" version="1.1"><rect x="0" y="0" width="24" height="24" fill="#001220"></rect><defs><linearGradient id="grad1_0" x1="0%" y1="0%" x2="100%" y2="100%"><stop offset="30%" stop-color="#001220" stop-opacity="1"></stop><stop offset="70%" stop-color="#001220" stop-opacity="1"></stop></linearGradient></defs><defs><linearGradient id="grad2_0" x1="0%" y1="0%" x2="100%" y2="100%"><stop offset="30%" stop-color="#001220" stop-opacity="1"></stop><stop offset="70%" stop-color="#001220" stop-opacity="1"></stop></linearGradient></defs><g transform="translate(24, 0)"><path d="M0 15.3C-2 14.6 -3.9 14 -5.4 12.9C-6.8 11.9 -7.6 10.3 -9.2 9.2C-10.7 8.1 -13 7.3 -14.1 5.8C-15.2 4.4 -15.3 2.2 -15.3 0L0 0Z" fill="#FBAE3C"></path></g><g transform="translate(0, 24)"><path d="M0 -15.3C2 -14.6 3.9 -14 5.4 -12.9C6.8 -11.9 7.6 -10.3 9.2 -9.2C10.7 -8.1 13 -7.3 14.1 -5.8C15.2 -4.4 15.3 -2.2 15.3 0L0 0Z" fill="#FBAE3C"></path></g></svg>