<svg id="visual" viewBox="0 0 24 24" width="24" height="24" xmlns="http://www.w3.org/2000/svg" xmlns:xlink="http://www.w3.org/1999/xlink" version="1.1"><rect x="0" y="0" width="24" height="24" fill="#001220"></rect><path d="M0 15L0.5 14.8C1 14.7 2 14.3 3.2 14.3C4.3 14.3 5.7 14.7 6.8 14.7C8 14.7 9 14.3 10.2 14.5C11.3 14.7 12.7 15.3 13.8 15.8C15 16.3 16 16.7 17.2 16.3C18.3 16 19.7 15 20.8 14.5C22 14 23 14 23.5 14L24 14L24 25L23.5 25C23 25 22 25 20.8 25C19.7 25 18.3 25 17.2 25C16 25 15 25 13.8 25C12.7 25 11.3 25 10.2 25C9 25 8 25 6.8 25C5.7 25 4.3 25 3.2 25C2 25 1 25 0.5 25L0 25Z" fill="#fa7268"></path><path d="M0 16L0.5 15.8C1 15.7 2 15.3 3.2 15.5C4.3 15.7 5.7 16.3 6.8 16.3C8 16.3 9 15.7 10.2 15.5C11.3 15.3 12.7 15.7 13.8 15.7C15 15.7 16 15.3 17.2 15.3C18.3 15.3 19.7 15.7 20.8 16.2C22 16.7 23 17.3 23.5 17.7L24 18L24 25L23.5 25C23 25 22 25 20.8 25C19.7 25 18.3 25 17.2 25C16 25 15 25 13.8 25C12.7 25 11.3 25 10.2 25C9 25 8 25 6.8 25C5.7 25 4.3 25 3.2 25C2 25 1 25 0.5 25L0 25Z" fill="#ef5f67"></path><path d="M0 18L0.5 17.8C1 17.7 2 17.3 3.2 17.3C4.3 17.3 5.7 17.7 6.8 18C8 18.3 9 18.7 10.2 18.8C11.3 19 12.7 19 13.8 19C15 19 16 19 17.2 18.8C18.3 18.7 19.7 18.3 20.8 18.3C22 18.3 23 18.7 23.5 18.8L24 19L24 25L23.5 25C23 25 22 25 20.8 25C19.7 25 18.3 25 17.2 25C16 25 15 25 13.8 25C12.7 25 11.3 25 10.2 25C9 25 8 25 6.8 25C5.7 25 4.3 25 3.2 25C2 25 1 25 0.5 25L0 25Z" fill="#e34c67"></path><path d="M0 19L0.5 19.2C1 19.3 2 19.7 3.2 19.7C4.3 19.7 5.7 19.3 6.8 19C8 18.7 9 18.3 10.2 18.5C11.3 18.7 12.7 19.3 13.8 19.7C15 20 16 20 17.2 20C18.3 20 19.7 20 20.8 20C22 20 23 20 23.5 20L24 20L24 25L23.5 25C23 25 22 25 20.8 25C19.7 25 18.3 25 17.2 25C16 25 15 25 13.8 25C12.7 25 11.3 25 10.2 25C9 25 8 25 6.8 25C5.7 25 4.3 25 3.2 25C2 25 1 25 0.5 25L0 25Z" fill="#d53867"></path><path d="M0 21L0.5 21.2C1 21.3 2 21.7 3.2 21.7C4.3 21.7 5.7 21.3 6.8 21.3C8 21.3 9 21.7 10.2 21.7C11.3 21.7 12.7 21.3 13.8 21.3C15 21.3 16 21.7 17.2 21.5C18.3 21.3 19.7 20.7 20.8 20.5C22 20.3 23 20.7 23.5 20.8L24 21L24 25L23.5 25C23 25 22 25 20.8 25C19.7 25 18.3 25 17.2 25C16 25 15 25 13.8 25C12.7 25 11.3 25 10.2 25C9 25 8 25 6.8 25C5.7 25 4.3 25 3.2 25C2 25 1 25 0.5 25L0 25Z" fill="#c62368"></path></svg>