<?xml version="1.0" encoding="iso-8859-1"?>
<!-- Uploaded to: SVG Repo, www.svgrepo.com, Generator: SVG Repo Mixer Tools -->
<svg version="1.1" id="Layer_1" xmlns="http://www.w3.org/2000/svg" xmlns:xlink="http://www.w3.org/1999/xlink" 
	 viewBox="0 0 512 512" xml:space="preserve">
<path style="fill:#DBDDDD;" d="M182.454,481.135c0,12.109-9.817,21.929-21.931,21.929H29.985c-12.109,0-21.929-9.819-21.929-21.929
	V30.865c0-12.112,9.819-21.931,21.929-21.931h130.537c12.114,0,21.931,9.819,21.931,21.931v450.269H182.454z"/>
<g style="opacity:0.2;">
	<path style="fill:#231F20;" d="M33.115,481.135V30.865c0-12.112,9.819-21.931,21.929-21.931H29.985
		c-12.109,0-21.929,9.819-21.929,21.931v450.269c0,12.109,9.819,21.929,21.929,21.929h25.059
		C42.934,503.063,33.115,493.245,33.115,481.135z"/>
</g>
<circle style="fill:#F74848;" cx="134.349" cy="54.128" r="18.131"/>
<g style="opacity:0.2;">
	<path style="fill:#231F20;" d="M138.504,54.129c0-5.808,2.741-10.965,6.989-14.284c-3.075-2.403-6.936-3.848-11.14-3.848
		c-10.014,0-18.131,8.118-18.131,18.131s8.118,18.131,18.131,18.131c4.204,0,8.065-1.445,11.14-3.848
		C141.245,65.094,138.504,59.937,138.504,54.129z"/>
</g>
<polygon style="fill:#53CAF9;" points="132.539,317.472 108.623,317.472 108.623,293.554 81.885,293.554 81.885,317.472 
	57.969,317.472 57.969,344.212 81.885,344.212 81.885,368.126 108.623,368.126 108.623,344.212 132.539,344.212 "/>
<rect x="50.927" y="473.396" style="fill:#EDEDED;" width="88.653" height="29.666"/>
<g style="opacity:0.2;">
	<rect x="50.927" y="473.396" style="fill:#231F20;" width="25.065" height="29.666"/>
</g>
<path style="fill:#688787;" d="M412.559,35.998H182.454V72.26V366.64v36.265h308.599c7.121,0,12.89-5.772,12.89-12.89v-36.265V85.15
	V48.888c0-7.121-5.77-12.89-12.89-12.89h-52.711"/>
<rect x="182.452" y="72.497" style="fill:#53CAF9;" width="285.091" height="295.865"/>
<rect x="235.785" y="402.908" style="fill:#547475;" width="38.669" height="67.932"/>
<g style="opacity:0.2;">
	<rect x="235.785" y="402.908" style="fill:#231F20;" width="25.56" height="67.932"/>
</g>
<path style="fill:#688787;" d="M230.826,503.063h24.24h0.107h24.24h32.333h24.24c8.9,0,16.113-7.213,16.113-16.113
	c0-8.898-7.213-16.113-16.113-16.113h-24.24h-32.333h-24.24h-0.107h-24.24h-32.333h-16.04v10.297
	c0,9.516-6.071,17.594-14.546,20.628c1.948,0.835,4.092,1.301,6.344,1.301h28.537"/>
<g style="opacity:0.2;">
	<path style="fill:#231F20;" d="M207.966,482.88v-12.043h-9.472h-16.04v10.297c0,9.516-6.071,17.594-14.546,20.628
		c1.948,0.835,4.092,1.301,6.344,1.301h25.266C204.655,498.378,207.966,491.092,207.966,482.88z"/>
</g>
<g>
	<path style="fill:#231F20;" d="M491.053,27.941h-52.711c-4.45,0-8.056,3.606-8.056,8.056s3.606,8.056,8.056,8.056h52.711
		c2.665,0,4.834,2.169,4.834,4.834v341.125c0,2.665-2.169,4.834-4.834,4.834H274.454h-38.669H190.51v-18.433h277.032
		c4.45,0,8.056-3.606,8.056-8.056V72.492c0-4.45-3.606-8.056-8.056-8.056H190.51V44.054h222.05c4.45,0,8.056-3.606,8.056-8.056
		s-3.606-8.056-8.056-8.056H190.365c-1.475-15.168-14.294-27.062-29.842-27.062H29.985C13.451,0.878,0,14.331,0,30.865v450.269
		c0,16.534,13.451,29.985,29.985,29.985H50.93h88.648h20.945c2.497,0,4.923-0.312,7.245-0.891c2.103,0.586,4.272,0.891,6.485,0.891
		h28.537c4.45,0,8.056-3.606,8.056-8.056s-3.606-8.056-8.056-8.056h-15.695c1.356-2.586,2.344-5.392,2.897-8.351
		c0.011-0.06,0.021-0.121,0.032-0.182c0.088-0.486,0.163-0.974,0.227-1.467c0.017-0.127,0.033-0.254,0.048-0.38
		c0.052-0.444,0.092-0.889,0.124-1.338c0.011-0.142,0.025-0.284,0.032-0.425c0.033-0.573,0.054-1.147,0.054-1.727v-2.241h45.277
		h38.669h61.533c4.443,0,8.056,3.614,8.056,8.056s-3.614,8.056-8.056,8.056H230.826c-4.45,0-8.056,3.606-8.056,8.056
		c0,4.45,3.606,8.056,8.056,8.056h105.161c13.326,0,24.169-10.843,24.169-24.169s-10.843-24.169-24.169-24.169h-53.477v-51.821
		h208.543c11.55,0,20.947-9.397,20.947-20.947V48.888C512,37.338,502.603,27.941,491.053,27.941z M459.486,80.549v279.752H190.51
		V80.549H459.486z M16.113,481.135V30.865c0-7.65,6.223-13.874,13.872-13.874h130.537c7.65,0,13.874,6.224,13.874,13.874v5.131
		v36.496v295.865v34.546v67.934v10.297c0,0.426-0.026,0.848-0.064,1.264c-0.014,0.153-0.034,0.303-0.054,0.454
		c-0.032,0.257-0.071,0.51-0.116,0.762c-0.034,0.186-0.069,0.371-0.111,0.554c-0.045,0.201-0.1,0.397-0.154,0.595
		c-0.223,0.816-0.518,1.608-0.883,2.364c-0.041,0.084-0.079,0.169-0.121,0.251c-0.132,0.259-0.271,0.513-0.419,0.763
		c-0.039,0.067-0.079,0.131-0.119,0.197c-0.694,1.134-1.548,2.169-2.539,3.065c-0.029,0.027-0.058,0.054-0.088,0.079
		c-0.249,0.221-0.505,0.435-0.77,0.638c-0.006,0.005-0.014,0.011-0.02,0.015c-1.118,0.855-2.376,1.549-3.748,2.04
		c-0.018,0.006-0.034,0.017-0.053,0.024c-1.447,0.512-2.996,0.806-4.617,0.806h-12.888v-21.61c0-4.45-3.606-8.056-8.056-8.056H50.93
		c-4.45,0-8.056,3.606-8.056,8.056v21.61H29.985C22.336,495.007,16.113,488.784,16.113,481.135z M58.986,495.007v-13.553h72.535
		v13.553H58.986z M190.51,410.96h37.219v51.821H190.51V410.96z M266.398,462.781h-22.556V410.96h22.556V462.781z"/>
	<path style="fill:#231F20;" d="M140.596,344.212v-26.74c0-4.45-3.606-8.056-8.056-8.056H116.68v-15.862
		c0-4.45-3.606-8.056-8.056-8.056H81.885c-4.45,0-8.056,3.606-8.056,8.056v15.862H57.969c-4.45,0-8.056,3.606-8.056,8.056v26.74
		c0,4.45,3.606,8.056,8.056,8.056h15.859v15.859c0,4.45,3.606,8.056,8.056,8.056h26.74c4.45,0,8.056-3.606,8.056-8.056v-15.859
		h15.859C136.989,352.268,140.596,348.661,140.596,344.212z M124.483,336.155h-15.859c-4.45,0-8.056,3.606-8.056,8.056v15.859H89.94
		v-15.859c0-4.45-3.606-8.056-8.056-8.056H66.025v-10.627h15.859c4.45,0,8.056-3.606,8.056-8.056V301.61h10.627v15.862
		c0,4.45,3.606,8.056,8.056,8.056h15.859v10.627H124.483z"/>
	<path style="fill:#231F20;" d="M134.351,80.317c14.439,0,26.188-11.748,26.188-26.188s-11.748-26.188-26.188-26.188
		s-26.188,11.748-26.188,26.188S119.912,80.317,134.351,80.317z M134.351,44.054c5.556,0,10.075,4.519,10.075,10.075
		s-4.519,10.075-10.075,10.075s-10.075-4.519-10.075-10.075S128.796,44.054,134.351,44.054z"/>
	<path style="fill:#231F20;" d="M53.078,62.186c4.45,0,8.056-3.606,8.056-8.056s-3.606-8.056-8.056-8.056H37.322
		c-4.45,0-8.056,3.606-8.056,8.056s3.606,8.056,8.056,8.056H53.078z"/>
	<path style="fill:#231F20;" d="M43.051,96.356c-4.45,0-8.056,3.606-8.056,8.056s3.606,8.056,8.056,8.056h15.756
		c4.45,0,8.056-3.606,8.056-8.056s-3.606-8.056-8.056-8.056H43.051z"/>
	<path style="fill:#231F20;" d="M87.377,112.469h15.756c4.45,0,8.056-3.606,8.056-8.056s-3.606-8.056-8.056-8.056H87.377
		c-4.45,0-8.056,3.606-8.056,8.056S82.927,112.469,87.377,112.469z"/>
	<path style="fill:#231F20;" d="M147.456,96.356h-15.756c-4.45,0-8.056,3.606-8.056,8.056s3.606,8.056,8.056,8.056h15.756
		c4.45,0,8.056-3.606,8.056-8.056S151.906,96.356,147.456,96.356z"/>
	<path style="fill:#231F20;" d="M43.051,150.422h15.756c4.45,0,8.056-3.606,8.056-8.056c0-4.45-3.606-8.056-8.056-8.056H43.051
		c-4.45,0-8.056,3.606-8.056,8.056C34.995,146.816,38.602,150.422,43.051,150.422z"/>
	<path style="fill:#231F20;" d="M87.377,150.422h15.756c4.45,0,8.056-3.606,8.056-8.056c0-4.45-3.606-8.056-8.056-8.056H87.377
		c-4.45,0-8.056,3.606-8.056,8.056C79.321,146.816,82.927,150.422,87.377,150.422z"/>
	<path style="fill:#231F20;" d="M147.456,134.309h-15.756c-4.45,0-8.056,3.606-8.056,8.056c0,4.45,3.606,8.056,8.056,8.056h15.756
		c4.45,0,8.056-3.606,8.056-8.056C155.512,137.915,151.906,134.309,147.456,134.309z"/>
	<path style="fill:#231F20;" d="M43.051,410.96h15.756c4.45,0,8.056-3.606,8.056-8.056c0-4.45-3.606-8.056-8.056-8.056H43.051
		c-4.45,0-8.056,3.606-8.056,8.056C34.995,407.354,38.602,410.96,43.051,410.96z"/>
	<path style="fill:#231F20;" d="M103.133,394.847H87.377c-4.45,0-8.056,3.606-8.056,8.056c0,4.45,3.606,8.056,8.056,8.056h15.756
		c4.45,0,8.056-3.606,8.056-8.056C111.19,398.453,107.583,394.847,103.133,394.847z"/>
	<path style="fill:#231F20;" d="M147.456,394.847h-15.756c-4.45,0-8.056,3.606-8.056,8.056c0,4.45,3.606,8.056,8.056,8.056h15.756
		c4.45,0,8.056-3.606,8.056-8.056C155.512,398.453,151.906,394.847,147.456,394.847z"/>
	<path style="fill:#231F20;" d="M43.051,448.913h15.756c4.45,0,8.056-3.606,8.056-8.056s-3.606-8.056-8.056-8.056H43.051
		c-4.45,0-8.056,3.606-8.056,8.056S38.602,448.913,43.051,448.913z"/>
	<path style="fill:#231F20;" d="M103.133,432.8H87.377c-4.45,0-8.056,3.606-8.056,8.056s3.606,8.056,8.056,8.056h15.756
		c4.45,0,8.056-3.606,8.056-8.056S107.583,432.8,103.133,432.8z"/>
	<path style="fill:#231F20;" d="M147.456,432.8h-15.756c-4.45,0-8.056,3.606-8.056,8.056s3.606,8.056,8.056,8.056h15.756
		c4.45,0,8.056-3.606,8.056-8.056S151.906,432.8,147.456,432.8z"/>
	<path style="fill:#231F20;" d="M43.051,188.377h15.756c4.45,0,8.056-3.606,8.056-8.056c0-4.45-3.606-8.056-8.056-8.056H43.051
		c-4.45,0-8.056,3.606-8.056,8.056C34.995,184.771,38.602,188.377,43.051,188.377z"/>
	<path style="fill:#231F20;" d="M87.377,188.377h15.756c4.45,0,8.056-3.606,8.056-8.056c0-4.45-3.606-8.056-8.056-8.056H87.377
		c-4.45,0-8.056,3.606-8.056,8.056C79.321,184.771,82.927,188.377,87.377,188.377z"/>
	<path style="fill:#231F20;" d="M147.456,172.265h-15.756c-4.45,0-8.056,3.606-8.056,8.056c0,4.45,3.606,8.056,8.056,8.056h15.756
		c4.45,0,8.056-3.606,8.056-8.056C155.512,175.871,151.906,172.265,147.456,172.265z"/>
	<path style="fill:#231F20;" d="M43.051,226.333h15.756c4.45,0,8.056-3.606,8.056-8.056c0-4.45-3.606-8.056-8.056-8.056H43.051
		c-4.45,0-8.056,3.606-8.056,8.056C34.995,222.727,38.602,226.333,43.051,226.333z"/>
	<path style="fill:#231F20;" d="M87.377,226.333h15.756c4.45,0,8.056-3.606,8.056-8.056c0-4.45-3.606-8.056-8.056-8.056H87.377
		c-4.45,0-8.056,3.606-8.056,8.056C79.321,222.727,82.927,226.333,87.377,226.333z"/>
	<path style="fill:#231F20;" d="M147.456,210.22h-15.756c-4.45,0-8.056,3.606-8.056,8.056c0,4.45,3.606,8.056,8.056,8.056h15.756
		c4.45,0,8.056-3.606,8.056-8.056C155.512,213.826,151.906,210.22,147.456,210.22z"/>
	<path style="fill:#231F20;" d="M57.159,255.999c0,4.45,3.606,8.056,8.056,8.056h15.756c4.45,0,8.056-3.606,8.056-8.056
		c0-4.45-3.606-8.056-8.056-8.056H65.215C60.765,247.942,57.159,251.55,57.159,255.999z"/>
	<path style="fill:#231F20;" d="M125.295,264.055c4.45,0,8.056-3.606,8.056-8.056c0-4.45-3.606-8.056-8.056-8.056h-15.756
		c-4.45,0-8.056,3.606-8.056,8.056c0,4.45,3.606,8.056,8.056,8.056H125.295z"/>
	<path style="fill:#231F20;" d="M212.008,226.333c2.061,0,4.124-0.786,5.698-2.359l56.118-56.118c3.146-3.147,3.146-8.248,0-11.394
		c-3.147-3.145-8.248-3.145-11.394,0l-56.118,56.118c-3.146,3.147-3.146,8.248,0,11.394
		C207.884,225.547,209.947,226.333,212.008,226.333z"/>
	<path style="fill:#231F20;" d="M315.581,216.253l-53.151,53.151c-3.146,3.147-3.146,8.248,0,11.394
		c1.574,1.573,3.636,2.359,5.698,2.359s4.124-0.786,5.698-2.359l53.151-53.151c3.146-3.147,3.146-8.248,0-11.394
		C323.828,213.109,318.728,213.109,315.581,216.253z"/>
	<path style="fill:#231F20;" d="M229.097,256.632c1.574,1.573,3.636,2.359,5.698,2.359s4.124-0.786,5.698-2.359l88.775-88.777
		c3.146-3.147,3.146-8.248,0-11.394c-3.147-3.145-8.248-3.145-11.394,0l-88.776,88.777
		C225.952,248.384,225.952,253.485,229.097,256.632z"/>
	<path style="fill:#231F20;" d="M212.198,262.137l-5.543,5.543c-3.146,3.147-3.146,8.248,0,11.394
		c1.574,1.573,3.636,2.359,5.698,2.359s4.124-0.786,5.698-2.359l5.543-5.543c3.146-3.147,3.146-8.248,0-11.394
		C220.446,258.992,215.346,258.992,212.198,262.137z"/>
</g>
<g style="opacity:0.2;">
	<rect x="190.24" y="33.711" style="fill:#231F20;" width="17.187" height="369.189"/>
</g>
</svg>