<svg width="159" height="20" viewBox="0 0 159 20" fill="none" xmlns="http://www.w3.org/2000/svg">
<path fill-rule="evenodd" clip-rule="evenodd" d="M0 4.21941V15.7819C0 17.9105 1.72557 19.6361 3.85418 19.6361H15.4167C17.5453 19.6361 19.2709 17.9105 19.2709 15.7819V4.21941C19.2709 2.09081 17.5453 0.365234 15.4167 0.365234H3.85418C1.72557 0.365234 0 2.09081 0 4.21941ZM15.4702 1.70349H14.2658C10.4116 1.70349 8.19011 4.16588 8.19011 7.93976V8.58664C7.74629 8.45937 7.28684 8.39479 6.82512 8.39479C4.09045 8.39479 1.87357 10.6117 1.87357 13.3463C1.87357 16.081 4.09045 18.2978 6.82512 18.2978C9.55978 18.2978 11.7767 16.081 11.7767 13.3463C11.7767 13.0137 11.7431 12.6819 11.6766 12.356H11.6963H15.4702C16.4691 12.3523 17.2769 11.5415 17.2769 10.5427C17.2769 9.54378 16.4691 8.73302 15.4702 8.72933H15.4635H15.4575H11.6963L11.6963 7.77917C11.6963 6.33385 12.7402 5.29002 14.2658 5.29002H15.4422H15.4448H15.4702C16.4501 5.2752 17.2367 4.47671 17.2367 3.49674C17.2367 2.51678 16.4501 1.7183 15.4702 1.70349ZM8.29721 13.3463C8.29721 12.5333 7.63813 11.8742 6.82512 11.8742C6.01212 11.8742 5.35303 12.5333 5.35303 13.3463C5.35303 14.1593 6.01212 14.8184 6.82512 14.8184C7.63813 14.8184 8.29721 14.1593 8.29721 13.3463Z" fill="white"/>
<path fill-rule="evenodd" clip-rule="evenodd" d="M36.67 15.7008V4.29883H38.6544V15.7008H36.67ZM42.084 4.29883V13.2311H52.0537V15.7008H41.4029C41.0475 15.7008 40.7414 15.5449 40.4847 15.233C40.2281 14.9212 40.0997 14.5408 40.0997 14.0918V4.29883H42.084ZM54.0048 15.7008V4.29883H55.9893V15.7008H54.0048ZM93.7566 13.2311V4.29883H95.6521V15.7008H93.7566L85.6231 6.83244V15.7008H83.7277V5.18597C83.7277 4.96146 83.7869 4.76812 83.9054 4.60597C84.0238 4.44383 84.1718 4.36276 84.3495 4.36276H85.6231L93.7566 13.2311ZM112.957 4.29883V13.2311H122.927V15.7008H112.276C111.921 15.7008 111.615 15.5449 111.358 15.233C111.101 14.9212 110.973 14.5408 110.973 14.0918V4.29883H112.957ZM151.189 14.3537C151.9 13.4556 152.255 12.3829 152.255 11.1356V4.29883H150.3V11.1356C150.3 11.7094 150.137 12.1959 149.811 12.595C149.486 12.9941 149.096 13.1937 148.642 13.1937H145.947V4.29883H144.051V13.1937H141.326C140.872 13.1937 140.487 12.9941 140.171 12.595C139.855 12.1958 139.697 11.7094 139.697 11.1356V4.29883H137.742V11.1356C137.742 12.3829 138.093 13.4556 138.794 14.3537C139.495 15.2517 140.339 15.7008 141.326 15.7008H148.642C149.629 15.7008 150.478 15.2517 151.189 14.3537ZM61.9365 13.2311H69.4183V15.7008H61.9365C61.127 15.7008 60.3767 15.4451 59.6856 14.9337C58.9945 14.4223 58.4465 13.7362 58.0418 12.8756C57.6371 12.015 57.4347 11.0733 57.4347 10.0505C57.4346 9.00275 57.637 8.04857 58.0418 7.18793C58.4465 6.32729 58.9945 5.64127 59.6856 5.12987C60.3767 4.61846 61.127 4.36276 61.9365 4.36276H69.4183V6.83244H61.9365C61.2455 6.83244 60.6531 7.14427 60.1595 7.76792C59.6659 8.39158 59.4191 9.15243 59.4191 10.0505C59.4191 10.9236 59.6659 11.672 60.1595 12.2956C60.6531 12.9193 61.2455 13.2311 61.9365 13.2311ZM81.2307 14.3724C80.5298 15.258 79.6758 15.7008 78.6688 15.7008H73.9416C72.9543 15.7008 72.1102 15.258 71.4092 14.3724C70.7083 13.4868 70.3578 12.4204 70.3578 11.1731V8.92791C70.3578 7.6806 70.7083 6.60792 71.4092 5.70986C72.1102 4.81179 72.9543 4.36276 73.9416 4.36276H78.6688C79.6758 4.36277 80.5298 4.8118 81.2307 5.70986C81.9318 6.60792 82.2824 7.6806 82.2824 8.92791V11.1731C82.2822 12.4204 81.9317 13.4868 81.2307 14.3724ZM109.022 4.36276V6.83244H99.0067V8.77825H109.022V11.2479H99.0523V15.7008H97.0975V9.80978H97.0922V4.65513H97.0975V4.36276H109.022ZM135.245 14.3724C134.544 15.258 133.69 15.7008 132.683 15.7008H127.956C126.969 15.7008 126.125 15.258 125.424 14.3724C124.723 13.4868 124.372 12.4204 124.372 11.1731V8.92791C124.372 7.6806 124.723 6.60792 125.424 5.70986C126.125 4.81179 126.969 4.36276 127.956 4.36276H132.683C133.69 4.36277 134.544 4.8118 135.245 5.70986C135.946 6.60792 136.297 7.6806 136.297 8.92791V11.1731C136.297 12.4204 135.946 13.4868 135.245 14.3724ZM34.4249 14.6905C33.8917 15.364 33.25 15.7008 32.4997 15.7008H23.2705V13.2311H32.4997C32.7168 13.2311 32.8995 13.1376 33.0476 12.9505C33.1957 12.7634 33.2697 12.5326 33.2697 12.2582C33.2697 11.9838 33.1957 11.7531 33.0476 11.566C32.8995 11.3789 32.7168 11.2853 32.4997 11.2853L25.9954 11.2853C25.245 11.2853 24.6033 10.9485 24.0702 10.275C23.5371 9.60145 23.2705 8.79071 23.2705 7.84276C23.2705 6.89481 23.5371 6.08405 24.0702 5.41051C24.6033 4.73696 25.245 4.40019 25.9954 4.40019L34.721 4.40022V6.86985H25.9954C25.7782 6.86985 25.5955 6.9634 25.4474 7.15051C25.2993 7.33759 25.2253 7.56835 25.2253 7.84276C25.2253 8.11717 25.2993 8.34791 25.4474 8.535C25.5955 8.7221 25.7782 8.81565 25.9954 8.81565H32.4997C33.25 8.81565 33.8918 9.15243 34.4249 9.82598C34.958 10.4995 35.2246 11.3103 35.2246 12.2582C35.2246 13.2062 34.958 14.0169 34.4249 14.6905ZM79.8387 7.46855C79.5129 7.06942 79.1229 6.86985 78.6688 6.86985H73.9416C73.4875 6.86984 73.1025 7.06941 72.7866 7.46855C72.4706 7.8677 72.3125 8.35415 72.3125 8.92791V11.1731C72.3127 11.7468 72.4707 12.2332 72.7866 12.6324C73.1025 13.0315 73.4875 13.2311 73.9416 13.2311H78.6688C79.123 13.2311 79.513 13.0315 79.8387 12.6324C80.1645 12.2333 80.3274 11.7468 80.3274 11.1731V8.92791C80.3274 8.35413 80.1645 7.86768 79.8387 7.46855ZM133.853 7.46855C133.528 7.06942 133.138 6.86985 132.683 6.86985H127.956C127.502 6.86984 127.117 7.06941 126.801 7.46855C126.485 7.8677 126.327 8.35415 126.327 8.92791V11.1731C126.327 11.7468 126.485 12.2332 126.801 12.6324C127.117 13.0315 127.502 13.2311 127.956 13.2311H132.683C133.138 13.2311 133.528 13.0315 133.853 12.6324C134.179 12.2333 134.342 11.7468 134.342 11.1731V8.92791C134.342 8.35413 134.179 7.86768 133.853 7.46855Z" fill="white"/>
</svg>
