<svg id="visual" viewBox="0 0 24 24" width="24" height="24" xmlns="http://www.w3.org/2000/svg" xmlns:xlink="http://www.w3.org/1999/xlink" version="1.1"><path d="M0 5L2 5L2 3L4 3L4 5L7 5L7 5L9 5L9 3L11 3L11 5L13 5L13 3L15 3L15 5L17 5L17 4L20 4L20 4L22 4L22 3L24 3L24 5L24 0L24 0L22 0L22 0L20 0L20 0L17 0L17 0L15 0L15 0L13 0L13 0L11 0L11 0L9 0L9 0L7 0L7 0L4 0L4 0L2 0L2 0L0 0Z" fill="#fa7268"></path><path d="M0 9L2 9L2 8L4 8L4 14L7 14L7 12L9 12L9 9L11 9L11 8L13 8L13 13L15 13L15 14L17 14L17 12L20 12L20 13L22 13L22 12L24 12L24 10L24 3L24 1L22 1L22 2L20 2L20 2L17 2L17 3L15 3L15 1L13 1L13 3L11 3L11 1L9 1L9 3L7 3L7 3L4 3L4 1L2 1L2 3L0 3Z" fill="#ea5e66"></path><path d="M0 18L2 18L2 15L4 15L4 20L7 20L7 18L9 18L9 18L11 18L11 16L13 16L13 17L15 17L15 19L17 19L17 17L20 17L20 18L22 18L22 16L24 16L24 19L24 8L24 10L22 10L22 11L20 11L20 10L17 10L17 12L15 12L15 11L13 11L13 6L11 6L11 7L9 7L9 10L7 10L7 12L4 12L4 6L2 6L2 7L0 7Z" fill="#d84a64"></path><path d="M0 20L2 20L2 21L4 21L4 22L7 22L7 23L9 23L9 20L11 20L11 21L13 21L13 21L15 21L15 23L17 23L17 22L20 22L20 23L22 23L22 22L24 22L24 23L24 17L24 14L22 14L22 16L20 16L20 15L17 15L17 17L15 17L15 15L13 15L13 14L11 14L11 16L9 16L9 16L7 16L7 18L4 18L4 13L2 13L2 16L0 16Z" fill="#c53762"></path><path d="M0 25L2 25L2 25L4 25L4 25L7 25L7 25L9 25L9 25L11 25L11 25L13 25L13 25L15 25L15 25L17 25L17 25L20 25L20 25L22 25L22 25L24 25L24 25L24 21L24 20L22 20L22 21L20 21L20 20L17 20L17 21L15 21L15 19L13 19L13 19L11 19L11 18L9 18L9 21L7 21L7 20L4 20L4 19L2 19L2 18L0 18Z" fill="#b0235f"></path></svg>