<svg id="visual" viewBox="0 0 24 24" width="24" height="24" xmlns="http://www.w3.org/2000/svg" xmlns:xlink="http://www.w3.org/1999/xlink" version="1.1"><path d="M0 6L0.3 5.7C0.7 5.3 1.3 4.7 2 4.3C2.7 4 3.3 4 4.2 5.2C5 6.3 6 8.7 6.8 10C7.7 11.3 8.3 11.7 9 11.7C9.7 11.7 10.3 11.3 11 10.5C11.7 9.7 12.3 8.3 13 7.8C13.7 7.3 14.3 7.7 15 8.3C15.7 9 16.3 10 17.2 9.5C18 9 19 7 19.8 6.7C20.7 6.3 21.3 7.7 22 7.8C22.7 8 23.3 7 23.7 6.5L24 6L24 0L23.7 0C23.3 0 22.7 0 22 0C21.3 0 20.7 0 19.8 0C19 0 18 0 17.2 0C16.3 0 15.7 0 15 0C14.3 0 13.7 0 13 0C12.3 0 11.7 0 11 0C10.3 0 9.7 0 9 0C8.3 0 7.7 0 6.8 0C6 0 5 0 4.2 0C3.3 0 2.7 0 2 0C1.3 0 0.7 0 0.3 0L0 0Z" fill="#6198ff"></path><path d="M0 8L0.3 8C0.7 8 1.3 8 2 7.8C2.7 7.7 3.3 7.3 4.2 8.5C5 9.7 6 12.3 6.8 13.5C7.7 14.7 8.3 14.3 9 14.2C9.7 14 10.3 14 11 13.5C11.7 13 12.3 12 13 11.7C13.7 11.3 14.3 11.7 15 12.2C15.7 12.7 16.3 13.3 17.2 13C18 12.7 19 11.3 19.8 11C20.7 10.7 21.3 11.3 22 11.3C22.7 11.3 23.3 10.7 23.7 10.3L24 10L24 4L23.7 4.5C23.3 5 22.7 6 22 5.8C21.3 5.7 20.7 4.3 19.8 4.7C19 5 18 7 17.2 7.5C16.3 8 15.7 7 15 6.3C14.3 5.7 13.7 5.3 13 5.8C12.3 6.3 11.7 7.7 11 8.5C10.3 9.3 9.7 9.7 9 9.7C8.3 9.7 7.7 9.3 6.8 8C6 6.7 5 4.3 4.2 3.2C3.3 2 2.7 2 2 2.3C1.3 2.7 0.7 3.3 0.3 3.7L0 4Z" fill="#3c80ff"></path><path d="M0 11L0.3 11.2C0.7 11.3 1.3 11.7 2 11.7C2.7 11.7 3.3 11.3 4.2 12.3C5 13.3 6 15.7 6.8 16.5C7.7 17.3 8.3 16.7 9 16.3C9.7 16 10.3 16 11 15.8C11.7 15.7 12.3 15.3 13 15.3C13.7 15.3 14.3 15.7 15 15.8C15.7 16 16.3 16 17.2 15.3C18 14.7 19 13.3 19.8 13C20.7 12.7 21.3 13.3 22 13.7C22.7 14 23.3 14 23.7 14L24 14L24 8L23.7 8.3C23.3 8.7 22.7 9.3 22 9.3C21.3 9.3 20.7 8.7 19.8 9C19 9.3 18 10.7 17.2 11C16.3 11.3 15.7 10.7 15 10.2C14.3 9.7 13.7 9.3 13 9.7C12.3 10 11.7 11 11 11.5C10.3 12 9.7 12 9 12.2C8.3 12.3 7.7 12.7 6.8 11.5C6 10.3 5 7.7 4.2 6.5C3.3 5.3 2.7 5.7 2 5.8C1.3 6 0.7 6 0.3 6L0 6Z" fill="#0066ff"></path><path d="M0 13L0.3 13.3C0.7 13.7 1.3 14.3 2 14.8C2.7 15.3 3.3 15.7 4.2 16.7C5 17.7 6 19.3 6.8 19.8C7.7 20.3 8.3 19.7 9 19.2C9.7 18.7 10.3 18.3 11 18.3C11.7 18.3 12.3 18.7 13 18.8C13.7 19 14.3 19 15 19C15.7 19 16.3 19 17.2 18.7C18 18.3 19 17.7 19.8 17.7C20.7 17.7 21.3 18.3 22 18.3C22.7 18.3 23.3 17.7 23.7 17.3L24 17L24 12L23.7 12C23.3 12 22.7 12 22 11.7C21.3 11.3 20.7 10.7 19.8 11C19 11.3 18 12.7 17.2 13.3C16.3 14 15.7 14 15 13.8C14.3 13.7 13.7 13.3 13 13.3C12.3 13.3 11.7 13.7 11 13.8C10.3 14 9.7 14 9 14.3C8.3 14.7 7.7 15.3 6.8 14.5C6 13.7 5 11.3 4.2 10.3C3.3 9.3 2.7 9.7 2 9.7C1.3 9.7 0.7 9.3 0.3 9.2L0 9Z" fill="#0059dd"></path><path d="M0 25L0.3 25C0.7 25 1.3 25 2 25C2.7 25 3.3 25 4.2 25C5 25 6 25 6.8 25C7.7 25 8.3 25 9 25C9.7 25 10.3 25 11 25C11.7 25 12.3 25 13 25C13.7 25 14.3 25 15 25C15.7 25 16.3 25 17.2 25C18 25 19 25 19.8 25C20.7 25 21.3 25 22 25C22.7 25 23.3 25 23.7 25L24 25L24 15L23.7 15.3C23.3 15.7 22.7 16.3 22 16.3C21.3 16.3 20.7 15.7 19.8 15.7C19 15.7 18 16.3 17.2 16.7C16.3 17 15.7 17 15 17C14.3 17 13.7 17 13 16.8C12.3 16.7 11.7 16.3 11 16.3C10.3 16.3 9.7 16.7 9 17.2C8.3 17.7 7.7 18.3 6.8 17.8C6 17.3 5 15.7 4.2 14.7C3.3 13.7 2.7 13.3 2 12.8C1.3 12.3 0.7 11.7 0.3 11.3L0 11Z" fill="#004cbb"></path></svg>