<svg id="visual" viewBox="0 0 24 24" width="24" height="24" xmlns="http://www.w3.org/2000/svg" xmlns:xlink="http://www.w3.org/1999/xlink" version="1.1"><rect x="0" y="0" width="24" height="24" fill="#002233"></rect><path d="M0 16L0.5 16.5C1 17 2 18 3.2 18.2C4.3 18.3 5.7 17.7 6.8 17C8 16.3 9 15.7 10.2 16C11.3 16.3 12.7 17.7 13.8 18C15 18.3 16 17.7 17.2 17.7C18.3 17.7 19.7 18.3 20.8 18.5C22 18.7 23 18.3 23.5 18.2L24 18L24 25L23.5 25C23 25 22 25 20.8 25C19.7 25 18.3 25 17.2 25C16 25 15 25 13.8 25C12.7 25 11.3 25 10.2 25C9 25 8 25 6.8 25C5.7 25 4.3 25 3.2 25C2 25 1 25 0.5 25L0 25Z" fill="#0066FF" stroke-linecap="round" stroke-linejoin="miter"></path></svg>