<svg id="visual" viewBox="0 0 200 60" width="200" height="60" xmlns="http://www.w3.org/2000/svg" xmlns:xlink="http://www.w3.org/1999/xlink" version="1.1"><rect x="0" y="0" width="200" height="60" fill="#140021"></rect><path d="M0 31L29 31L29 37L57 37L57 29L86 29L86 32L114 32L114 33L143 33L143 30L171 30L171 28L200 28L200 37L200 61L200 61L171 61L171 61L143 61L143 61L114 61L114 61L86 61L86 61L57 61L57 61L29 61L29 61L0 61Z" fill="#9900ff"></path><path d="M0 39L29 39L29 41L57 41L57 38L86 38L86 37L114 37L114 36L143 36L143 38L171 38L171 44L200 44L200 39L200 61L200 61L171 61L171 61L143 61L143 61L114 61L114 61L86 61L86 61L57 61L57 61L29 61L29 61L0 61Z" fill="#7700c6"></path><path d="M0 50L29 50L29 45L57 45L57 49L86 49L86 45L114 45L114 51L143 51L143 49L171 49L171 50L200 50L200 48L200 61L200 61L171 61L171 61L143 61L143 61L114 61L114 61L86 61L86 61L57 61L57 61L29 61L29 61L0 61Z" fill="#560090"></path></svg>